<svg width="109" height="100" viewBox="0 0 109 100" fill="none" xmlns="http://www.w3.org/2000/svg">
<path fill-rule="evenodd" clip-rule="evenodd" d="M19.245 5.30958C11.14 5.30958 4.54378 11.9044 4.54378 20.0105C4.54392 28.1165 11.1399 34.7113 19.2448 34.7113C27.3523 34.711 33.9459 28.1165 33.9459 20.0105C33.9459 11.9042 27.352 5.30958 19.245 5.30958ZM19.245 37.1943C9.76889 37.1943 2.06055 29.4858 2.06055 20.0105C2.06069 10.535 9.76889 2.82642 19.2448 2.82642C28.721 2.82635 36.4291 10.5352 36.4291 20.0105C36.4292 29.4857 28.7208 37.1943 19.245 37.1943Z" fill="white"/>
<path fill-rule="evenodd" clip-rule="evenodd" d="M14.9191 23.8675C14.4904 23.8675 14.0719 23.6448 13.8434 23.2465C13.5009 22.6525 13.7032 21.8933 14.296 21.5505L18.2065 19.2935V11.5345C18.2065 10.8489 18.7624 10.2932 19.4478 10.2932C20.1334 10.2931 20.6895 10.8489 20.6895 11.5346L20.6897 20.0104C20.6897 20.4539 20.4523 20.864 20.0687 21.0858L15.538 23.7008C15.344 23.8139 15.1303 23.8675 14.9191 23.8675Z" fill="white"/>
<path fill-rule="evenodd" clip-rule="evenodd" d="M50.1565 97.5167H61.1152V70.1929H50.1565V97.5167ZM62.3568 99.9999H48.9149C48.2291 99.9999 47.6729 99.4438 47.6729 98.7584L47.6733 68.9513C47.6733 68.2658 48.2289 67.7099 48.9145 67.7099L62.3568 67.7097C63.0421 67.7097 63.5983 68.2658 63.5983 68.9515L63.5984 98.7583C63.5984 99.4438 63.0421 100 62.3568 99.9999Z" fill="white"/>
<path fill-rule="evenodd" clip-rule="evenodd" d="M72.5761 97.5167H83.5353V56.7505H72.5761V97.5167ZM84.7769 99.9999H71.3345C70.6492 99.9999 70.0928 99.4438 70.0928 98.7584L70.0928 55.5089C70.0928 54.8233 70.6489 54.2676 71.3344 54.2676L84.7769 54.2676C85.4622 54.2676 86.0182 54.8233 86.0182 55.5091L86.0185 98.7583C86.0185 99.4438 85.462 100 84.7769 99.9999Z" fill="white"/>
<path fill-rule="evenodd" clip-rule="evenodd" d="M94.9962 97.5168H105.955V44.1849H94.9962V97.5168ZM107.197 100H93.7546C93.0693 100 92.5127 99.444 92.5127 98.7585L92.513 42.9433C92.513 42.2577 93.0688 41.7018 93.7543 41.7018L107.197 41.7017C107.882 41.7017 108.438 42.2577 108.438 42.9434V98.7584C108.438 99.444 107.882 100 107.197 100Z" fill="white"/>
<path fill-rule="evenodd" clip-rule="evenodd" d="M67.9178 2.48316C56.8315 2.48316 47.8123 11.5021 47.8123 22.5878C47.8123 33.6731 56.8313 42.6923 67.9175 42.6923C79.004 42.6923 88.0225 33.6733 88.0225 22.5878C88.0227 11.5021 79.0035 2.48316 67.9178 2.48316ZM67.9178 45.1756C55.4628 45.1756 45.3291 35.0427 45.3291 22.5878C45.3291 10.1327 55.4625 3.59329e-10 67.9175 3.59329e-10C80.3727 -6.96751e-05 90.5058 10.1327 90.5058 22.5878C90.5059 35.0427 80.3724 45.1756 67.9178 45.1756Z" fill="white"/>
<path fill-rule="evenodd" clip-rule="evenodd" d="M67.9185 33.994C64.4309 33.994 61.5938 31.1574 61.5938 27.6701C61.5941 26.9842 62.1498 26.4287 62.8354 26.4287C63.521 26.4286 64.077 26.9844 64.077 27.6701C64.0773 29.7877 65.8014 31.5111 67.9183 31.5111C70.0375 31.511 71.7595 29.7879 71.7595 27.6701C71.7597 24.9074 70.3432 24.4417 67.6315 23.7957C65.0837 23.189 61.5938 22.3581 61.5938 17.5054C61.5941 14.0181 64.4304 11.1814 67.9183 11.1814C71.4061 11.1813 74.2427 14.0181 74.2427 17.5054C74.243 18.191 73.6866 18.7468 73.0011 18.7468C72.3156 18.7466 71.7595 18.1912 71.7595 17.5054C71.7597 15.3872 70.0372 13.6644 67.9183 13.6644C65.8014 13.6642 64.077 15.3874 64.077 17.5054C64.0773 20.2681 65.4932 20.7338 68.2071 21.3799C70.7529 21.9865 74.2427 22.8175 74.2427 27.6701C74.243 31.1571 71.4059 33.9941 67.9185 33.994Z" fill="white"/>
<path fill-rule="evenodd" clip-rule="evenodd" d="M67.865 13.664C67.1792 13.664 66.623 13.1086 66.623 12.4228L66.6234 9.96344C66.6234 9.27769 67.1792 8.72217 67.8647 8.72217C68.5503 8.7221 69.1063 9.27783 69.1063 9.96351L69.1066 12.4227C69.1066 13.1085 68.5501 13.6642 67.865 13.664Z" fill="white"/>
<path fill-rule="evenodd" clip-rule="evenodd" d="M67.865 36.4531C67.1792 36.4531 66.623 35.8973 66.623 35.2117L66.6234 32.7525C66.6234 32.0667 67.1792 31.511 67.8647 31.511C68.5503 31.5109 69.1063 32.0667 69.1063 32.7526L69.1066 35.2115C69.1066 35.8973 68.5501 36.4533 67.865 36.4531Z" fill="white"/>
<path fill-rule="evenodd" clip-rule="evenodd" d="M37.251 100H1.24169C0.556359 100 0 99.4441 0 98.7586L6.97701e-05 53.0102C6.97701e-05 52.3246 0.55615 51.7688 1.24162 51.7688L11.4981 51.7686C12.1835 51.7686 12.7395 52.3246 12.7395 53.0104C12.7397 53.696 12.1833 54.2519 11.4978 54.2519L2.4833 54.2518V97.5169H36.0093V54.2518H26.9926C26.3068 54.2518 25.7526 53.6961 25.7526 53.0104C25.7529 52.3246 26.3067 51.7688 26.9922 51.7688L37.251 51.7686C37.9362 51.7686 38.4922 52.3246 38.4922 53.0104L38.4926 98.7585C38.4926 99.4441 37.936 100 37.251 100Z" fill="white"/>
<path fill-rule="evenodd" clip-rule="evenodd" d="M12.7394 54.4249H25.7525V50.575C25.7525 48.4523 24.0235 46.7252 21.9004 46.7252L16.5893 46.7252C14.466 46.7252 12.7391 48.4523 12.7391 50.5751L12.7394 54.4249ZM26.9923 56.9082H11.4978C10.8124 56.9082 10.2559 56.3523 10.2559 55.6666L10.2561 50.575C10.2561 47.0829 13.0969 44.242 16.5889 44.242L21.9007 44.2419C25.3927 44.2419 28.2335 47.0831 28.2335 50.5751L28.2339 55.6666C28.2339 56.3523 27.6795 56.9082 26.9923 56.9082Z" fill="white"/>
<path fill-rule="evenodd" clip-rule="evenodd" d="M32.1596 64.8775H6.33355C5.64823 64.8775 5.0918 64.3218 5.0918 63.636C5.09194 62.9503 5.64788 62.3944 6.33342 62.3944L32.1596 62.3943C32.8449 62.3943 33.4009 62.9504 33.4009 63.636C33.4012 64.3217 32.8449 64.8777 32.1596 64.8775Z" fill="white"/>
<path fill-rule="evenodd" clip-rule="evenodd" d="M32.1596 77.1255H6.33355C5.64823 77.1255 5.0918 76.5699 5.0918 75.8842C5.09194 75.1984 5.64788 74.6428 6.33342 74.6428L32.1596 74.6426C32.8449 74.6426 33.4009 75.1985 33.4009 75.8842C33.4012 76.5698 32.8449 77.1258 32.1596 77.1255Z" fill="white"/>
<path fill-rule="evenodd" clip-rule="evenodd" d="M32.1596 89.3751H6.33355C5.64823 89.3751 5.0918 88.819 5.0918 88.1335C5.09194 87.4479 5.64788 86.8918 6.33342 86.8918H32.1596C32.8449 86.8918 33.4009 87.448 33.4009 88.1335C33.4012 88.8188 32.8449 89.3751 32.1596 89.3751Z" fill="white"/>
</svg>
