<svg width="100" height="100" viewBox="0 0 100 100" fill="none" xmlns="http://www.w3.org/2000/svg">
<mask id="mask0_332_1387" style="mask-type:luminance" maskUnits="userSpaceOnUse" x="0" y="0" width="100" height="100">
<path d="M0 0H100V100H0V0Z" fill="white"/>
</mask>
<g mask="url(#mask0_332_1387)">
<path d="M40.163 18.582C36.4671 23.1216 31.5404 26.3777 25.915 27.9982C24.0761 28.5281 23.0148 30.448 23.5445 32.287C24.0441 34.0212 25.7802 35.0638 27.5185 34.7325C27.6236 34.7126 27.7287 34.6876 27.8333 34.6575C30.6955 33.8331 33.4119 32.6673 35.9376 31.1911" stroke="white" stroke-width="3" stroke-miterlimit="10" stroke-linecap="round" stroke-linejoin="round"/>
<path d="M50.0236 39.8916L53.7963 29.1148C54.9344 29.2916 56.0775 29.3824 57.2168 29.3824C62.3527 29.3824 67.3977 27.6045 71.4527 24.2361L71.9178 23.8496C73.3629 22.649 73.6602 20.5029 72.5119 19.016C71.3064 17.4547 69.0576 17.2162 67.5531 18.4662L67.0242 18.9057C66.1217 19.6553 65.1478 20.2906 64.1238 20.8074C60.1299 22.8223 55.3303 21.7791 52.2871 18.5002C50.798 16.8959 48.6693 15.8771 46.2707 15.8771C42.5313 15.8771 39.2637 18.4033 38.3223 22.0225L33.6738 39.8916H50.0236Z" stroke="white" stroke-width="3" stroke-miterlimit="10" stroke-linecap="round" stroke-linejoin="round"/>
<path d="M53.7299 76.2326L64.8727 65.0898L73.1729 73.39L90.475 56.0879L94.6596 60.2725L98.0471 43.4396L81.2143 46.8271L84.8729 50.4857L73.1729 62.1857L64.8727 53.8855L26.3096 92.4488L31.9117 98.0508L42.6813 87.2812" stroke="white" stroke-width="3" stroke-miterlimit="10" stroke-linecap="round" stroke-linejoin="round"/>
<path d="M58.3018 8.91309C58.3018 5.06699 55.184 1.94922 51.3379 1.94922C47.4918 1.94922 44.374 5.06699 44.374 8.91309C44.374 12.7592 47.4918 15.877 51.3379 15.877C55.184 15.877 58.3018 12.7592 58.3018 8.91309Z" stroke="white" stroke-width="3" stroke-miterlimit="10" stroke-linecap="round" stroke-linejoin="round"/>
<path d="M21.2203 72.5472L20.0167 75.7029C19.1296 78.029 20.6417 80.5745 23.1085 80.9083L23.1997 80.9206C24.8882 81.1492 26.5148 80.2929 27.2724 78.7908C31.1347 71.1329 42.5365 48.5898 42.5365 48.5898H47.1669L44.8056 63.4359C44.456 65.6333 46.1538 67.6226 48.379 67.6226C50.0038 67.6226 51.4294 66.5396 51.865 64.9744L56.3031 49.0281C57.5808 44.4363 54.1281 39.8915 49.3621 39.8915H47.248" stroke="white" stroke-width="3" stroke-miterlimit="10" stroke-linecap="round" stroke-linejoin="round"/>
<path d="M33.6742 39.8915L26.7891 57.9458" stroke="white" stroke-width="3" stroke-miterlimit="10" stroke-linecap="round" stroke-linejoin="round"/>
<path d="M17.1393 54.5485L2.70449 40.1138C1.71309 39.1224 1.71309 37.5145 2.70449 36.5231L13.1824 26.0452C14.174 25.0536 15.7816 25.0536 16.7732 26.0452L31.2078 40.48C32.1994 41.4714 32.1994 43.079 31.2078 44.0706L20.7301 54.5485C19.7385 55.5401 18.1309 55.5401 17.1393 54.5485Z" stroke="white" stroke-width="3" stroke-miterlimit="10" stroke-linecap="round" stroke-linejoin="round"/>
<path d="M7.94434 31.2842L14.5207 37.8606" stroke="white" stroke-width="3" stroke-miterlimit="10" stroke-linecap="round" stroke-linejoin="round"/>
<path d="M25.4924 48.8333L18.916 42.2569" stroke="white" stroke-width="3" stroke-miterlimit="10" stroke-linecap="round" stroke-linejoin="round"/>
<path d="M14.8196 42.5556L14.2223 41.9583C13.1733 40.9093 13.1733 39.2083 14.2223 38.1591L16.7192 35.6623L21.1157 40.0587L18.6188 42.5556C17.5698 43.6048 15.8688 43.6048 14.8196 42.5556Z" stroke="white" stroke-width="3" stroke-miterlimit="10" stroke-linecap="round" stroke-linejoin="round"/>
</g>
</svg>
