<svg width="100" height="100" viewBox="0 0 100 100" fill="none" xmlns="http://www.w3.org/2000/svg">
<path d="M91.2109 14.8438H8.78906C3.93301 14.8438 0 18.8012 0 23.6328V76.3672C0 81.2275 3.96191 85.1562 8.78906 85.1562H91.2109C96.0264 85.1562 100 81.2441 100 76.3672V23.6328C100 18.8098 96.0826 14.8438 91.2109 14.8438ZM89.9801 20.7031C88.1844 22.4893 57.2818 53.2291 56.2148 54.2904C54.5547 55.9506 52.3477 56.8647 50 56.8647C47.6523 56.8647 45.4453 55.9504 43.7797 54.285C43.0621 53.5711 12.5006 23.1707 10.0199 20.7031H89.9801ZM5.85938 75.1746V24.8291L31.1793 50.0156L5.85938 75.1746ZM10.0236 79.2969L35.3336 54.1479L39.642 58.4336C42.4088 61.2004 46.0873 62.724 50 62.724C53.9127 62.724 57.5912 61.2004 60.3525 58.4391L64.6664 54.1479L89.9764 79.2969H10.0236ZM94.1406 75.1746L68.8207 50.0156L94.1406 24.8291V75.1746Z" fill="white"/>
</svg>
