<svg width="200" height="191" viewBox="0 0 200 191" fill="none" xmlns="http://www.w3.org/2000/svg">
<path d="M176.86 151.321L176.862 151.319C177.32 150.689 177.704 149.559 177.612 147.372C177.519 145.176 176.984 142.587 176.251 139.508C176.133 139.012 176.009 138.5 175.883 137.978C175.269 135.444 174.59 132.643 174.191 129.993C173.713 126.813 173.51 123.152 174.622 119.729C174.622 119.729 174.622 119.729 174.622 119.728L179.377 121.273C180.674 117.281 184.936 113.679 189.252 110.033C194.585 105.527 200 100.952 200 95.4835C200 90.0144 194.584 85.4388 189.25 80.9327C184.935 77.2872 180.674 73.6871 179.378 69.6963L176.86 151.321ZM176.86 151.321C176.381 151.98 175.399 152.704 173.284 153.296C171.159 153.891 168.524 154.184 165.371 154.435C164.84 154.477 164.291 154.519 163.73 154.561C161.152 154.755 158.309 154.969 155.7 155.396C152.544 155.912 149.001 156.835 146.101 158.945C143.213 161.047 141.259 164.135 139.811 166.968C138.629 169.28 137.566 171.881 136.601 174.246C136.376 174.797 136.156 175.336 135.941 175.855C134.732 178.772 133.639 181.188 132.411 183.024C131.191 184.848 130.184 185.573 129.376 185.835L129.372 185.836M176.86 151.321L129.372 185.836M129.372 185.836C128.681 186.06 127.524 186.082 125.478 185.31M129.372 185.836L125.478 185.31M125.478 185.31C123.43 184.536 121.14 183.221 118.432 181.566M125.478 185.31L118.432 181.566M118.432 181.566C118.034 181.323 117.625 181.071 117.207 180.814M118.432 181.566L117.207 180.814M117.207 180.814C114.949 179.423 112.441 177.878 109.976 176.655M117.207 180.814L109.976 176.655M109.976 176.655C107.069 175.212 103.627 173.899 99.9997 173.899M109.976 176.655L99.9997 173.899M99.9997 173.899C96.3722 173.899 92.9308 175.212 90.0243 176.655M99.9997 173.899L90.0243 176.655M90.0243 176.655C87.5616 177.878 85.0553 179.422 82.7982 180.812M90.0243 176.655L82.7982 180.812M82.7982 180.812C82.3799 181.07 81.9703 181.322 81.571 181.566M82.7982 180.812L81.571 181.566M81.571 181.566C78.864 183.221 76.5748 184.536 74.5259 185.31M81.571 181.566L74.5259 185.31M74.5259 185.31C72.4838 186.081 71.3241 186.061 70.6285 185.836M74.5259 185.31L70.6285 185.836M70.6285 185.836C69.8173 185.573 68.8076 184.845 67.5873 183.019C66.3586 181.18 65.2646 178.764 64.0562 175.846C63.8416 175.328 63.6222 174.791 63.3975 174.241C62.4312 171.875 61.3683 169.273 60.1855 166.961C58.7376 164.13 56.7837 161.044 53.8955 158.945C50.9967 156.836 47.4534 155.913 44.2972 155.397C41.6901 154.971 38.8476 154.757 36.27 154.563C35.7082 154.521 35.1591 154.48 34.6277 154.438C31.4747 154.186 28.8396 153.894 26.7141 153.299C24.5996 152.707 23.6163 151.983 23.1362 151.324L70.6285 185.836ZM125.474 5.66292C127.517 4.89154 128.677 4.91162 129.372 5.13657L23.1367 39.6492C23.6167 38.99 24.6 38.2654 26.7147 37.6735C28.8403 37.0785 31.4755 36.7865 34.6286 36.5352C35.16 36.4928 35.7092 36.4515 36.271 36.4093C38.8488 36.2153 41.6915 36.0015 44.2988 35.5755C47.4555 35.0598 50.9989 34.137 53.8982 32.0279L53.8992 32.0271C56.7868 29.9254 58.7403 26.8365 60.1881 24.0038C61.3689 21.6935 62.4305 19.0935 63.3956 16.7297C63.6213 16.1768 63.8418 15.6368 64.0572 15.1165C65.2654 12.1991 66.3591 9.78391 67.5871 7.94776C68.8066 6.12421 69.8143 5.39971 70.6224 5.13843L70.628 5.13659C71.3189 4.91226 72.4763 4.89043 74.5216 5.66279C76.5703 6.43644 78.86 7.75143 81.5679 9.40662C81.9665 9.65023 82.3754 9.9021 82.7929 10.1592C85.0515 11.5503 87.5595 13.095 90.0239 14.318C92.9311 15.7607 96.373 17.0737 100 17.0737C103.628 17.0737 107.069 15.7605 109.976 14.3177C112.438 13.0952 114.944 11.5511 117.202 10.1605C117.62 9.90286 118.029 9.65045 118.429 9.40634C121.136 7.75128 123.425 6.43647 125.474 5.66292ZM23.1357 151.323C22.677 150.692 22.2936 149.56 22.386 147.373C22.4787 145.177 23.0143 142.588 23.7468 139.509C23.865 139.012 23.9891 138.5 24.1158 137.977C24.7295 135.443 25.4078 132.643 25.8066 129.995C26.2853 126.815 26.4888 123.154 25.3778 119.732C24.2807 116.353 21.9424 113.559 19.708 111.331C17.9132 109.541 15.8082 107.764 13.888 106.142C13.4015 105.731 12.9269 105.33 12.4722 104.942C10.0781 102.897 8.12066 101.104 6.75431 99.3554C5.40084 97.6236 5 96.4017 5 95.4864C5 94.571 5.40084 93.3492 6.75432 91.6173C8.12067 89.869 10.0781 88.076 12.4722 86.0308C12.927 85.6422 13.4017 85.2413 13.8883 84.8304C15.8085 83.2088 17.9134 81.4312 19.7082 79.6415C21.9428 77.4133 24.2812 74.6199 25.3784 71.2404C26.4894 67.8186 26.2859 64.157 25.8072 60.9779C25.4084 58.3292 24.73 55.5287 24.1163 52.9954C23.9896 52.4721 23.8656 51.9603 23.7474 51.4635C23.0149 48.3847 22.4793 45.7949 22.3865 43.599C22.2942 41.4119 22.6777 40.2803 23.1363 39.6498L23.1357 151.323Z" fill="#0D74B0" stroke="white" stroke-width="10"/>
<path d="M86.9971 122.715L87.0011 122.719C88.13 123.85 89.6633 124.485 91.2612 124.483L91.2686 124.483L91.276 124.483C92.8744 124.485 94.4081 123.85 95.5364 122.719L95.5409 122.715L137.647 80.6086C137.647 80.6085 137.647 80.6084 137.647 80.6083C140.007 78.2485 140.006 74.4227 137.646 72.0631C135.287 69.7036 131.461 69.7038 129.101 72.0638L129.101 72.0642L94.8029 106.359L91.2677 109.894L87.7323 106.359L70.9223 89.5514C70.9222 89.5512 70.922 89.5511 70.9219 89.5509C68.5622 87.1927 64.7372 87.1933 62.378 89.5528L86.9971 122.715ZM86.9971 122.715L62.3802 98.0979L62.3797 98.0974M86.9971 122.715L62.3797 98.0974M62.3797 98.0974C60.0199 95.7382 60.0193 91.9128 62.3778 89.5531L62.3797 98.0974Z" fill="white" stroke="white" stroke-width="10"/>
</svg>
