<svg width="100" height="100" viewBox="0 0 100 100" fill="none" xmlns="http://www.w3.org/2000/svg">
<path d="M65.9452 97.5C65.5299 97.5 65.1118 97.4637 64.6965 97.3891C50.3973 94.8151 36.1433 87.0205 24.5614 75.4386C12.9795 63.8567 5.18492 49.6027 2.61095 35.3035C2.126 32.6049 3.2569 29.7982 5.49219 28.1529C8.35478 26.0462 11.4392 24.0878 14.6582 22.3355C16.7923 21.1742 19.3084 21.1094 21.3935 22.1598C28.5215 25.7527 33.2463 31.7371 35.4365 39.9459C36.0304 42.1674 35.5013 44.5765 34.0219 46.3887L29.299 52.1678C28.5421 53.0946 28.4498 54.3727 29.0702 55.3485C33.0883 61.6705 38.3295 66.9117 44.6515 70.9288C45.6263 71.5502 46.9045 71.4569 47.8322 70.701L53.6104 65.9791C55.4235 64.4988 57.8296 63.9706 60.0551 64.5636C68.263 66.7547 74.2473 71.4795 77.8402 78.6075C78.8916 80.6906 78.8268 83.2077 77.6655 85.3419C75.9122 88.5608 73.9538 91.6452 71.8461 94.5078C70.4551 96.3985 68.2315 97.5 65.9452 97.5ZM18.2325 25.9383C17.7603 25.9383 17.2734 26.062 16.8218 26.3084C13.7815 27.9635 10.8728 29.81 8.17415 31.796C7.31714 32.4272 6.88127 33.4894 7.06386 34.5025C9.47488 47.9024 16.8247 61.3044 27.7597 72.2403C38.6956 83.1753 52.0976 90.5251 65.4976 92.9361C66.5126 93.1178 67.5728 92.6819 68.2031 91.8259C70.19 89.1272 72.0365 86.2185 73.6926 83.1782C74.1432 82.3497 74.1845 81.4024 73.8016 80.6445C70.7712 74.6337 65.8932 70.8031 58.8879 68.934C58.0672 68.7161 57.1621 68.9193 56.472 69.4828L50.6948 74.2037C48.2533 76.1985 44.8479 76.4164 42.2248 74.7466C35.3393 70.3712 29.6288 64.6607 25.2525 57.7752C23.5836 55.1502 23.8016 51.7457 25.7963 49.3053L30.5182 43.5271C31.0807 42.8379 31.2859 41.9358 31.066 41.1131C29.1969 34.1068 25.3664 29.2289 19.3565 26.1984C19.0109 26.0246 18.6271 25.9383 18.2325 25.9383Z" fill="white"/>
<path d="M95.2023 52.376C95.1699 52.376 95.1375 52.375 95.1061 52.374C93.8574 52.322 92.8885 51.2676 92.9405 50.0199C93.4235 38.494 89.0383 27.2213 80.91 19.091C72.7807 10.9627 61.5316 6.55494 49.9811 7.06051C48.7795 7.09192 47.679 6.1446 47.627 4.89491C47.575 3.6472 48.5439 2.59287 49.7916 2.54084C62.58 1.99895 75.0857 6.87104 84.1083 15.8927C93.13 24.9144 97.9962 37.423 97.4602 50.2094C97.4091 51.4247 96.4078 52.376 95.2023 52.376Z" fill="white"/>
<path d="M83.1679 52.376C83.1237 52.376 83.0786 52.375 83.0334 52.3721C81.7857 52.2984 80.8344 51.2284 80.9081 49.9817C81.3989 41.6423 78.3027 33.4805 72.4116 27.5895C66.5205 21.6984 58.3539 18.61 50.0194 19.093C48.7658 19.1764 47.7026 18.2154 47.629 16.9677C47.5554 15.7209 48.5066 14.6509 49.7543 14.5773C59.3709 14.0049 68.8068 17.5871 75.6099 24.3911C82.414 31.1952 85.9912 40.6193 85.4238 50.2467C85.3531 51.4493 84.3567 52.376 83.1679 52.376Z" fill="white"/>
<path d="M71.1472 52.3759C71.0765 52.3759 71.0058 52.373 70.9342 52.3661C69.6904 52.2503 68.7764 51.1478 68.8923 49.904C69.3713 44.7679 67.5572 39.7318 63.9132 36.0878C60.2692 32.4448 55.2371 30.6287 50.097 31.1087C48.8542 31.2216 47.7498 30.3106 47.6349 29.0668C47.5191 27.823 48.433 26.7206 49.6768 26.6048C56.1638 26.001 62.5133 28.2913 67.1115 32.8895C71.7107 37.4877 74.0009 43.8431 73.3962 50.3242C73.2873 51.4963 72.3016 52.3759 71.1472 52.3759Z" fill="white"/>
</svg>
